<?xml version="1.0" encoding="utf-8"?>
<!-- Generator: Adobe Illustrator 28.3.0, SVG Export Plug-In . SVG Version: 6.00 Build 0)  -->
<svg version="1.1" id="Layer_1" xmlns="http://www.w3.org/2000/svg" xmlns:xlink="http://www.w3.org/1999/xlink" x="0px" y="0px"
	 viewBox="0 0 800 800" style="enable-background:new 0 0 800 800;" xml:space="preserve">
<style type="text/css">
	.st0{fill-rule:evenodd;clip-rule:evenodd;fill:#FFFFFF;}
	.st1{fill:#FFFFFF;}
</style>
<g>
	<path class="st0" d="M80,103.1c4.4-13.1,18.5-20.2,31.6-15.8l10.1,3.4c20.9,7,38.5,12.8,52.4,19.3c14.7,6.9,27.5,15.4,37.2,28.8
		c9.7,13.5,13.7,28.3,15.6,44.5c0.9,8.3,1.4,17.5,1.6,27.8h356.9c68.5,0,102.8,0,117.6,22.5c14.8,22.5,1.3,54-25.7,116.9L663,383.7
		c-12.6,29.4-18.9,44.1-31.4,52.4c-12.5,8.3-28.5,8.3-60.5,8.3H233.8c3.5,18,9,28.5,16.9,36.4c9.2,9.2,22.2,15.2,46.6,18.5
		c25.2,3.4,58.5,3.4,106.4,3.4H637c13.8,0,25,11.2,25,25c0,13.8-11.2,25-25,25H401.8c-45.6,0-82.3,0-111.2-3.9
		c-30-4-55.3-12.7-75.3-32.7c-20.1-20.1-28.7-45.3-32.7-75.3c-3.9-28.9-3.9-65.6-3.9-111.2v-89.1c0-23.8,0-39.5-1.4-51.5
		c-1.3-11.4-3.6-16.9-6.5-20.9c-2.9-4-7.4-7.9-17.8-12.7c-11-5.1-25.9-10.1-48.4-17.6l-8.8-2.9C82.7,130.3,75.6,116.2,80,103.1z
		 M303.7,286c-13.8,0-25,11.2-25,25s11.2,25,25,25h100c13.8,0,25-11.2,25-25s-11.2-25-25-25H303.7z"/>
	<path class="st1" d="M287,611c27.6,0,50,22.4,50,50c0,27.6-22.4,50-50,50c-27.6,0-50-22.4-50-50C237,633.4,259.4,611,287,611z"/>
	<path class="st1" d="M587,611c27.6,0,50,22.4,50,50c0,27.6-22.4,50-50,50c-27.6,0-50-22.4-50-50C537,633.4,559.4,611,587,611z"/>
</g>
</svg>
